<?xml version="1.0" encoding="UTF-8"?>
<svg id="Layer_1" xmlns="http://www.w3.org/2000/svg" version="1.1" viewBox="0 0 1348.51 287.71">
  <!-- Generator: Adobe Illustrator 29.7.1, SVG Export Plug-In . SVG Version: 2.1.1 Build 8)  -->
  <defs>
    <style>
      .st0, .st1, .st2, .st3, .st4, .st5, .st6 {
        fill: none;
      }

      .st1 {
        stroke-linejoin: round;
      }

      .st1, .st7, .st8, .st9, .st10, .st2, .st3, .st4, .st5, .st6 {
        stroke: #000;
      }

      .st1, .st10 {
        stroke-width: 8px;
      }

      .st1, .st2 {
        stroke-linecap: round;
      }

      .st11 {
        font-family: PTSerif-Bold, 'PT Serif';
        font-weight: 700;
      }

      .st7, .st3 {
        stroke-width: 2px;
      }

      .st12 {
        font-size: 24px;
      }

      .st8, .st9, .st10 {
        fill: #fff;
      }

      .st8, .st5 {
        stroke-width: 4px;
      }

      .st13 {
        font-family: PTSerif-Regular, 'PT Serif';
      }

      .st9, .st6 {
        stroke-width: 6px;
      }

      .st2 {
        stroke-width: 10px;
      }

      .st3 {
        stroke-miterlimit: 10;
      }

      .st4 {
        stroke-width: 3px;
      }
    </style>
  </defs>
  <rect class="st9" x="19.37" y="90" width="250" height="180" rx="18" ry="18"/>
  <rect class="st9" x="369.37" y="90" width="250" height="180" rx="18" ry="18"/>
  <rect class="st9" x="719.37" y="90" width="250" height="180" rx="18" ry="18"/>
  <rect class="st9" x="1069.37" y="90" width="250" height="180" rx="18" ry="18"/>
  <circle cx="47.37" cy="118" r="6"/>
  <circle cx="47.37" cy="180" r="6"/>
  <circle cx="47.37" cy="211" r="6"/>
  <circle cx="47.37" cy="242" r="6"/>
  <circle cx="71.62" cy="118" r="6"/>
  <circle cx="71.62" cy="149" r="6"/>
  <circle cx="71.62" cy="180" r="6"/>
  <circle cx="71.62" cy="242" r="6"/>
  <circle cx="95.87" cy="149" r="6"/>
  <circle cx="95.87" cy="180" r="6"/>
  <circle cx="95.87" cy="211" r="6"/>
  <circle cx="95.87" cy="242" r="6"/>
  <circle cx="120.12" cy="118" r="6"/>
  <circle cx="120.12" cy="149" r="6"/>
  <circle cx="120.12" cy="211" r="6"/>
  <circle cx="120.12" cy="242" r="6"/>
  <circle cx="144.37" cy="118" r="6"/>
  <circle cx="144.37" cy="149" r="6"/>
  <circle cx="144.37" cy="180" r="6"/>
  <circle cx="144.37" cy="211" r="6"/>
  <circle cx="168.62" cy="118" r="6"/>
  <circle cx="168.62" cy="180" r="6"/>
  <circle cx="168.62" cy="211" r="6"/>
  <circle cx="168.62" cy="242" r="6"/>
  <circle cx="192.87" cy="118" r="6"/>
  <circle cx="192.87" cy="149" r="6"/>
  <circle cx="192.87" cy="180" r="6"/>
  <circle cx="192.87" cy="242" r="6"/>
  <circle cx="217.12" cy="149" r="6"/>
  <circle cx="217.12" cy="180" r="6"/>
  <circle cx="217.12" cy="211" r="6"/>
  <circle cx="217.12" cy="242" r="6"/>
  <circle cx="241.37" cy="118" r="6"/>
  <circle cx="241.37" cy="149" r="6"/>
  <circle cx="241.37" cy="211" r="6"/>
  <circle cx="241.37" cy="242" r="6"/>
  <line class="st4" x1="419.37" y1="130" x2="494.37" y2="130"/>
  <line class="st4" x1="419.37" y1="130" x2="494.37" y2="163.33"/>
  <line class="st4" x1="419.37" y1="130" x2="494.37" y2="196.67"/>
  <line class="st4" x1="419.37" y1="130" x2="494.37" y2="230"/>
  <line class="st4" x1="419.37" y1="180" x2="494.37" y2="130"/>
  <line class="st4" x1="419.37" y1="180" x2="494.37" y2="163.33"/>
  <line class="st4" x1="419.37" y1="180" x2="494.37" y2="196.67"/>
  <line class="st4" x1="419.37" y1="180" x2="494.37" y2="230"/>
  <line class="st4" x1="419.37" y1="230" x2="494.37" y2="130"/>
  <line class="st4" x1="419.37" y1="230" x2="494.37" y2="163.33"/>
  <line class="st4" x1="419.37" y1="230" x2="494.37" y2="196.67"/>
  <line class="st4" x1="419.37" y1="230" x2="494.37" y2="230"/>
  <line class="st4" x1="494.37" y1="130" x2="569.37" y2="130"/>
  <line class="st4" x1="494.37" y1="130" x2="569.37" y2="180"/>
  <line class="st4" x1="494.37" y1="130" x2="569.37" y2="230"/>
  <line class="st4" x1="494.37" y1="163.33" x2="569.37" y2="130"/>
  <line class="st4" x1="494.37" y1="163.33" x2="569.37" y2="180"/>
  <line class="st4" x1="494.37" y1="163.33" x2="569.37" y2="230"/>
  <line class="st4" x1="494.37" y1="196.67" x2="569.37" y2="130"/>
  <line class="st4" x1="494.37" y1="196.67" x2="569.37" y2="180"/>
  <line class="st4" x1="494.37" y1="196.67" x2="569.37" y2="230"/>
  <line class="st4" x1="494.37" y1="230" x2="569.37" y2="130"/>
  <line class="st4" x1="494.37" y1="230" x2="569.37" y2="180"/>
  <line class="st4" x1="494.37" y1="230" x2="569.37" y2="230"/>
  <circle class="st8" cx="419.37" cy="130" r="10"/>
  <circle class="st8" cx="419.37" cy="180" r="10"/>
  <circle class="st8" cx="419.37" cy="230" r="10"/>
  <circle class="st8" cx="494.37" cy="130" r="10"/>
  <circle class="st8" cx="494.37" cy="163.33" r="10"/>
  <circle class="st8" cx="494.37" cy="196.67" r="10"/>
  <circle class="st8" cx="494.37" cy="230" r="10"/>
  <circle class="st8" cx="569.37" cy="130" r="10"/>
  <circle class="st8" cx="569.37" cy="180" r="10"/>
  <circle class="st8" cx="569.37" cy="230" r="10"/>
  <rect class="st9" x="739.37" y="110" width="210" height="140" rx="10" ry="10"/>
  <line class="st5" x1="764.37" y1="225" x2="764.37" y2="130"/>
  <line class="st5" x1="764.37" y1="225" x2="929.37" y2="225"/>
  <path class="st6" d="M774.37,215l30-25,50,10,50-45"/>
  <circle class="st9" cx="917.37" cy="142" r="26"/>
  <path class="st1" d="M903.37,142l11,12,19-22"/>
  <rect x="1109.37" y="200" width="16" height="30"/>
  <rect x="1137.37" y="180" width="16" height="50"/>
  <rect x="1165.37" y="160" width="16" height="70"/>
  <rect x="1193.37" y="120" width="16" height="110"/>
  <circle class="st10" cx="1219.37" cy="200" r="35"/>
  <line class="st2" x1="1243.37" y1="224" x2="1274.37" y2="255"/>
  <path class="st7" d="M1269.37,112l4.7,11.5,12.4.9-9.5,8.1,3,12.1-10.6-6.6-10.6,6.6,3-12.1-9.5-8.1,12.4-.9,4.7-11.5Z"/>
  <path class="st0" d=""/>
  <path d="M354.37,180" marker-end="url(#arrowhead)"/>
  <path class="st0" d=""/>
  <path d="M704.37,180" marker-end="url(#arrowhead)"/>
  <path class="st0" d=""/>
  <path d="M1054.37,180" marker-end="url(#arrowhead)"/>
  <path class="st0" d=""/>
  <path d="M556.87,990" marker-end="url(#arrowhead)"/>
  <g>
    <line class="st3" x1="286.33" y1="172.83" x2="329.85" y2="172.83"/>
    <polygon points="343.98 172.83 324.08 180.96 328.8 172.83 324.08 164.7 343.98 172.83"/>
  </g>
  <g>
    <line class="st3" x1="639.76" y1="172.83" x2="683.29" y2="172.83"/>
    <polygon points="697.41 172.83 677.51 180.96 682.23 172.83 677.51 164.7 697.41 172.83"/>
  </g>
  <g>
    <line class="st3" x1="991.33" y1="172.83" x2="1034.85" y2="172.83"/>
    <polygon points="1048.98 172.83 1029.08 180.96 1033.8 172.83 1029.08 164.7 1048.98 172.83"/>
  </g>
  <text class="st12" transform="translate(22.37 36.73)"><tspan class="st11" x="0" y="0">1.</tspan><tspan class="st13" x="20.66" y="0" xml:space="preserve"> Bin and process </tspan><tspan class="st13"><tspan x="0" y="28.8">neural data</tspan></tspan></text>
  <text class="st12" transform="translate(384.48 46.25)"><tspan class="st11" x="0" y="0">2.</tspan><tspan class="st13" x="20.66" y="0" xml:space="preserve"> Train model</tspan></text>
  <text class="st12" transform="translate(730.43 47.48)"><tspan class="st11" x="0" y="0">3.</tspan><tspan class="st13" x="20.66" y="0" xml:space="preserve"> Evaluate model </tspan></text>
  <text class="st12" transform="translate(1069.37 34.15)"><tspan class="st11" x="0" y="0">4.</tspan><tspan class="st13" x="20.66" y="0" xml:space="preserve"> Evaluate model latents</tspan><tspan class="st13"><tspan x="0" y="28.8">for interpretable features</tspan></tspan></text>
</svg>